<svg width="587" height="145" viewBox="0 0 587 145" fill="none" xmlns="http://www.w3.org/2000/svg">
<path d="M104.8 143.426C102.418 144.669 100.215 144.418 98.0674 144.419C85.737 144.42 73.4063 144.403 61.076 144.34C51.3745 144.29 50.846 143.933 47.1972 134.74C42.7737 123.596 38.4274 112.421 34.0383 101.263C33.5509 100.024 33.067 98.7763 32.4627 97.5933C31.9163 96.5236 31.1027 95.597 29.7462 95.764C28.1099 95.9654 27.6376 97.2178 27.5519 98.6429C27.4718 99.9723 27.4575 101.307 27.4583 102.64C27.4658 114.137 27.5325 125.635 27.4763 137.132C27.4491 142.697 25.8693 144.317 20.394 144.501C16.2326 144.64 12.0632 144.582 7.89786 144.549C1.77574 144.501 0.197299 143.018 0.170047 136.864C0.09038 118.868 0.107105 100.872 0.0825378 82.8762C0.0543248 62.2142 0.00776903 41.5521 3.03035e-06 20.8901C-0.00266797 13.7837 1.75946 12.0068 8.83228 11.9982C21.8293 11.9821 34.8272 11.9446 47.8234 12.0624C66.4486 12.2312 76.4553 22.3549 76.5418 40.9739C76.5844 50.1383 76.3466 59.3106 76.6488 68.4656C76.979 78.4689 72.4809 85.4383 63.8721 89.8059C60.2497 91.6436 59.5864 93.4655 61.246 97.1783C65.8662 107.514 70.0697 118.035 74.5207 128.447C77.3005 134.95 78.2444 135.248 83.7734 131.005C98.4556 119.736 112.191 107.347 125.984 95.0304C134.93 87.0422 143.914 79.0954 152.772 71.0101C155.826 68.2225 158.033 68.5448 160.628 71.6832C168.054 80.6637 174.502 91.0099 184.202 97.3662C197.755 106.248 208.105 118.454 220.359 128.617C226.65 133.834 232.989 134.582 240.178 130.731C250.914 124.979 259.075 116.028 268.288 108.397C274.952 102.877 281.232 96.8912 287.633 91.057C293.612 85.6066 294.821 85.5924 300.155 91.4353C302.85 94.3871 305.517 97.3671 308.095 100.421C310.156 102.861 312.007 103.21 314.883 101.273C322.964 95.8299 323.049 95.9822 329.797 103.451C339.991 114.734 351.395 124.683 363.22 134.213C368.382 138.373 373.474 138.839 379.462 136.451C398.893 128.702 416.934 118.353 434.677 107.417C464.327 89.1425 493.687 70.4331 521.237 49.0507C533.209 39.759 545.399 30.7124 556.062 19.8557C557.441 18.4518 559.181 17.3451 560.095 15.054C555.366 12.4491 549.955 13.0644 545.045 12.2853C544.854 10.4087 545.933 10.1166 546.819 9.7577C557.972 5.24019 569.461 1.91145 581.388 0.220257C583.858 -0.129932 587.033 -0.613758 585.999 3.62129C582.787 16.7825 578.45 29.5194 570.964 40.9704C570.416 41.8075 569.768 42.5946 568.083 42.6329C566.143 37.7247 569.277 32.2831 567.239 27.3053C564.976 26.7882 563.758 28.4374 562.43 29.5176C519.327 64.5645 471.966 92.9807 423.137 119.127C411.978 125.102 400.636 130.719 389.408 136.544C379.518 141.675 369.151 142.778 358.483 143.131C348.994 143.446 339.493 143.438 329.997 143.532C328.882 143.543 327.629 143.728 326.65 142.316C326.574 139.163 330.56 137.626 330.665 134.127C326.966 132.807 324.694 135.737 321.887 136.685C318.984 137.666 315.932 141.044 313.206 138.828C310.374 136.526 313.783 133.395 314.546 130.707C316.586 123.524 318.629 116.375 318.836 108.394C313.739 109.208 309.672 111.881 307.372 115.305C300.061 126.187 288.022 129.371 277.512 135.075C276.104 135.84 274.637 136.884 271.684 135.42C276.728 124.378 284.752 114.612 288.039 102.398C285.304 101.742 283.912 103.409 282.424 104.5C272.995 111.411 265.025 120.01 256.032 127.429C242.822 138.329 227.461 143.804 210.523 144.357C197.21 144.792 183.867 144.288 170.538 144.178C169.07 144.166 167.503 144.318 166.16 142.515C168.72 137.938 175.246 136.395 176.582 130.253C171.977 128.143 167.96 132.638 163.325 131.28C163.41 126.279 168.312 123.426 168.798 118.189C160.509 119.014 153.82 124.692 144.254 125.479C148.278 117.195 156.262 112.53 156.789 103.826C153.519 102.449 151.688 106.351 148.239 105.577C147.21 98.968 151.19 92.9216 151.208 86.3379C142.239 89.0887 109.787 117.112 107.978 124.099C116.109 122.304 122.419 116.46 130.901 115.841C121.264 124.138 114.383 134.76 104.8 143.426ZM44.9912 36.5715C40.839 36.5321 36.681 36.6135 32.536 36.4185C28.6184 36.2342 27.1728 38.0062 27.3163 41.7825C27.4804 46.0962 27.2921 50.422 27.3716 54.7404C27.6903 72.0774 24.598 69.7828 43.416 69.8583C43.5821 69.859 43.7486 69.8574 43.9143 69.8476C47.8194 69.6165 50.0774 67.8795 50.0192 63.6362C49.9235 56.6593 49.9471 49.6799 49.9958 42.702C50.017 39.6623 48.8118 37.6002 44.9912 36.5715Z" fill="black"/>
<path d="M362.891 61.1094C365.278 59.0789 364.837 56.6367 364.841 54.3469C364.863 42.5219 364.974 30.6943 364.767 18.8727C364.684 14.1823 366.556 12.0717 371.162 12.0946C375.824 12.1177 380.486 12.018 385.149 12.0129C388.986 12.0086 390.986 14.0489 391.271 17.795C391.41 19.6192 391.43 21.4557 391.431 23.2866C391.452 54.0986 391.472 84.9106 391.467 115.723C391.465 124.013 384.099 129.631 375.997 127.591C368.75 125.766 364.88 120.833 364.813 113.348C364.756 107.026 364.652 100.705 364.641 94.384C364.633 89.8783 362.553 87.511 357.957 87.6856C353.632 87.8498 349.312 88.1054 344.989 88.328C341.142 88.5262 339.282 90.4343 339.418 94.4081C339.501 96.8467 339.786 99.3623 338.814 102.046C334.817 101.338 333.024 98.1238 331.008 95.5452C327.296 90.7962 323.597 87.4161 317.209 91.2666C314.949 92.6285 313.413 91.3322 313.258 88.6923C313.199 87.6955 313.176 86.6954 313.175 85.6967C313.155 64.0453 313.118 42.3938 313.137 20.7424C313.144 13.2723 314.481 11.9988 321.833 12.0021C325.331 12.0037 328.828 11.9939 332.326 11.9954C339.209 11.9984 340.297 13.1255 340.307 20.2234C340.323 31.7153 340.31 43.2074 340.379 54.6989C340.417 61.0588 341.262 61.9791 347.63 61.8941C352.598 61.8277 357.612 62.6035 362.891 61.1094Z" fill="black"/>
<path d="M445.227 70.0707C443.862 76.8343 442.643 83.1933 441.286 89.5227C440.872 91.4533 440.264 93.3656 438.393 94.5764C429.735 100.179 421.113 105.836 412.45 111.43C411.957 111.748 411.215 111.682 410.66 111.783C408.88 110.017 409.779 108.122 410.133 106.472C416.415 77.2396 422.792 48.0278 429.099 18.8009C430.073 14.2855 432.368 11.8126 437.315 11.9422C444.466 12.1296 451.629 12.0999 458.782 11.9293C462.758 11.8345 465.11 13.5219 466.04 17.2799C469.95 33.0868 473.767 48.9172 477.789 64.6955C478.509 67.522 477.502 69.1675 475.41 70.5782C469.754 74.3919 464.05 78.1348 458.423 81.9905C455.319 84.1175 453.592 83.2778 452.747 79.7673C451.239 73.4988 449.679 67.2426 447.92 60.0843C445.717 63.597 445.741 66.6888 445.227 70.0707Z" fill="black"/>
<path d="M249.871 42.7977C249.906 38.3805 247.068 37.8135 244.104 37.7216C239.444 37.5772 234.777 37.6089 230.114 37.6545C225.939 37.6954 223.992 35.578 223.945 31.5382C223.897 27.3745 223.857 23.2099 223.893 19.0464C223.94 13.5327 225.127 12.2103 230.599 12.1231C238.758 11.9931 246.921 12.0605 255.083 12.0477C268.075 12.0274 281.067 11.9699 294.059 12.0088C300.528 12.0282 301.549 13.0992 301.606 19.6192C301.642 23.7708 302.215 27.8979 301.688 32.0835C301.229 35.7216 299.395 37.4885 295.859 37.57C292.029 37.6582 288.197 37.6167 284.367 37.6663C277.734 37.7523 276.777 38.485 276.699 45.1339C276.543 58.4571 276.459 71.7869 276.731 85.1062C276.828 89.9017 275.464 93.2089 271.544 96.1232C265.943 100.286 260.827 105.099 255.483 109.609C254.236 110.661 253.172 112.059 249.881 112.212C249.881 89.1833 249.881 66.2107 249.871 42.7977Z" fill="black"/>
<path d="M157.332 61.6326C149.853 64.2487 144.773 69.6821 139.077 74.2323C135.112 77.3997 134.15 76.9843 132.847 72.1314C132.068 69.2275 132.345 65.9096 129.423 62.3762C128.019 69.0186 126.475 74.5489 125.798 80.1833C125.383 83.641 123.873 86.2005 121.65 88.3959C112.89 97.0453 103.995 105.558 95.133 114.104C94.4349 114.777 93.697 115.548 92.3261 115.05C90.739 112.989 91.8524 110.672 92.3292 108.54C98.9612 78.875 105.657 49.2243 112.389 19.5822C113.92 12.8433 115.045 12.0231 121.872 11.9977C128.195 11.9742 134.519 12.0257 140.842 11.974C144.862 11.9411 147.662 13.7023 148.651 17.5909C152.009 30.7914 155.25 44.0219 158.449 57.2618C158.784 58.647 159.036 60.2697 157.332 61.6326Z" fill="black"/>
<path d="M506.05 98.2685C506.051 96.9366 506.039 96.1043 506.053 95.2724C506.374 75.7501 503.339 81.4568 519.509 69.7299C523.271 67.0023 527.272 64.604 531.198 62.1089C531.542 61.8902 532.145 62.0798 532.652 62.0798C534.123 63.8654 533.509 65.9434 533.517 67.851C533.585 82.9952 533.688 98.1412 533.502 113.283C533.45 117.558 534.737 119.262 539.179 119.126C547.992 118.855 556.818 118.974 565.638 119.015C571.609 119.043 573.364 120.801 573.465 126.741C573.533 130.734 573.52 134.73 573.453 138.723C573.388 142.562 571.369 144.545 567.511 144.547C549.038 144.558 530.565 144.572 512.093 144.546C507.208 144.538 506.001 141.374 506.009 137.212C506.036 124.397 506.038 111.583 506.05 98.2685Z" fill="black"/>
<path d="M207.883 13.0287C212.357 16.1136 213.384 20.1549 213.377 24.9782C213.337 52.7843 213.48 80.5906 213.524 108.397C213.526 109.809 213.992 111.41 212.664 112.535C211.201 112.965 210.434 111.936 209.597 111.195C202.993 105.345 196.47 99.4028 189.79 93.6408C187.729 91.8628 186.777 89.9939 186.787 87.2249C186.871 64.4139 186.801 41.6024 186.845 18.7912C186.856 13.3549 188.158 12.0109 193.713 12.0797C198.333 12.1369 203.025 11.1935 207.883 13.0287Z" fill="black"/>
<path d="M470.16 100.181C474.119 97.9877 477.777 96.0029 481.412 93.9744C483.732 92.6795 485.331 93.3963 485.994 95.8073C489.08 107.035 492.106 118.28 495.079 129.538C495.705 131.909 494.013 133.188 492.302 134.353C487.796 137.422 482.425 137.605 477.859 136.162C473.386 134.749 467.14 136.777 464.502 130.51C463.902 129.084 462.131 130.131 460.905 130.628C458.659 131.539 456.771 133.516 453.797 133.008C452.087 128.219 457.251 125.397 457.351 121.144C454.768 119.564 452.778 121.267 450.784 122.184C443.37 125.593 436.042 129.189 428.619 132.577C426.464 133.561 424.095 135.027 421.746 132.618C422.069 129.63 424.573 128.534 426.517 127.182C440.481 117.475 455.325 109.179 470.16 100.181Z" fill="black"/>
<path d="M533.332 26.6777C533.201 28.693 532.47 29.9722 531.328 31.0175C524.452 37.3118 517.25 43.2073 509.619 48.5646C508.997 49.0012 508.138 49.1006 507.619 49.2781C506.472 48.708 506.124 47.923 506.119 47.0869C506.057 36.9394 505.957 26.791 506.05 16.6444C506.076 13.7044 508.049 12.1054 510.945 12.0507C516.6 11.9438 522.259 11.9748 527.915 11.9844C531.4 11.9902 533.104 14.0159 533.306 17.2673C533.492 20.25 533.356 23.2526 533.332 26.6777Z" fill="black"/>
</svg>
